<svg width="128" height="128" viewBox="0 0 128 128" fill="none" xmlns="http://www.w3.org/2000/svg">
<path d="M18 64C18 38.5949 38.5949 18 64 18C89.4051 18 110 38.5949 110 64C110 89.4051 89.4051 110 64 110C38.5949 110 18 89.4051 18 64Z" fill="#0F3FB8"/>
<path d="M64 10C34.1766 10 10 34.1766 10 64C10 93.8234 34.1766 118 64 118" stroke="#0A2C84" stroke-width="10" stroke-linecap="round"/>
<path d="M81 27C96.464 33.7385 107 47.7624 107 64C107 80.2376 96.464 94.2615 81 101" stroke="#5EE6FF" stroke-width="8" stroke-linecap="round" opacity="0.9"/>
<path d="M48 42C48 38.6863 50.6863 36 54 36H76C79.3137 36 82 38.6863 82 42V86C82 89.3137 79.3137 92 76 92H54C50.6863 92 48 89.3137 48 86V42Z" fill="white"/>
<rect x="56" y="46" width="18" height="6" rx="3" fill="#0F3FB8"/>
<rect x="56" y="58" width="18" height="6" rx="3" fill="#73E8FF"/>
<rect x="56" y="70" width="18" height="6" rx="3" fill="#0F3FB8" opacity="0.78"/>
<path d="M31 54C31 51.2386 33.2386 49 36 49H42V79H36C33.2386 79 31 76.7614 31 74V54Z" fill="#73E8FF"/>
<circle cx="38" cy="57" r="2.5" fill="#0A2C84"/>
<circle cx="38" cy="64" r="2.5" fill="#0A2C84"/>
<circle cx="38" cy="71" r="2.5" fill="#0A2C84"/>
<path d="M84 64C84 60.6863 86.6863 58 90 58H102C105.314 58 108 60.6863 108 64C108 67.3137 105.314 70 102 70H90C86.6863 70 84 67.3137 84 64Z" fill="#73E8FF"/>
<path d="M92 52C92 49.7909 93.7909 48 96 48H100C102.209 48 104 49.7909 104 52C104 54.2091 102.209 56 100 56H96C93.7909 56 92 54.2091 92 52Z" fill="#73E8FF" opacity="0.75"/>
<path d="M92 76C92 73.7909 93.7909 72 96 72H100C102.209 72 104 73.7909 104 76C104 78.2091 102.209 80 100 80H96C93.7909 80 92 78.2091 92 76Z" fill="#73E8FF" opacity="0.75"/>
</svg>
